# xmcd
#
# Track frame offsets: 
#        150
#        14055
#        15083
#        29956
#        30721
#        47694
#        59012
#        75340
#        77133
#        91871
#        93724
#
# Disc length: 1450 seconds
#
# Revision: 0
# Processed by: cddbd v1.5.2PL0 Copyright (c) Steve Scherf et al.
# Submitted via: ExactAudioCopy v0.99pb5
#
DISCID=8305a80b
DTITLE=Highlands Country - August 29, 2010
DYEAR=2010
DGENRE=Country
TTITLE0=Great Is Thy Reward
TTITLE1=Welcome
TTITLE2=Down At The Cross
TTITLE3=Talking
TTITLE4=Beautiful One
TTITLE5=Announcements - Daniel
TTITLE6=On My Highway
TTITLE7=Talking 2
TTITLE8=The Man I Want To Be
TTITLE9=Prayer
TTITLE10=He Believed
EXTD=
EXTT0=
EXTT1=
EXTT2=
EXTT3=
EXTT4=
EXTT5=
EXTT6=
EXTT7=
EXTT8=
EXTT9=
EXTT10=
PLAYORDER=
